<?xml version="1.0" encoding="UTF-8"?>
<svg width="122px" height="28px" viewBox="0 0 122 28" version="1.1" xmlns="http://www.w3.org/2000/svg" xmlns:xlink="http://www.w3.org/1999/xlink">
    <!-- Generator: Sketch 58 (84663) - https://sketch.com -->
    <title>Scoir Logo 122x28</title>
    <desc>Created with Sketch.</desc>
    <g id="Scoir-Logo-122x28" stroke="none" stroke-width="1" fill="none" fill-rule="evenodd">
        <g id="Scoir-Logo" transform="translate(1.000000, 0.000000)" fill="#1798CB" fill-rule="nonzero">
            <g id="Layer_1-2">
                <path d="M12.306383,27.8387879 C18.2638298,27.6351515 23.3702128,24.2666667 23.3702128,19.0569697 C23.3361702,9.51151515 8.36595745,11.8787879 8.36595745,8.74787879 C8.36595745,7.62787879 9.25957447,6.97454545 11.2851064,6.97454545 C14.1142328,6.95805014 16.8632537,7.91055245 19.0723404,9.67272727 L22.7234043,4.65818182 C19.8053848,2.1205145 16.0414176,0.761724162 12.1702128,0.848484848 C5.3787234,0.848484848 1.58297872,4.92969697 1.58297872,9.28242424 C1.58297872,19.1757576 16.5531915,16.3672727 16.5531915,19.7527273 C16.5531915,21.0169697 15.0978723,21.7890909 12.7489362,21.7890909 C9.56953327,21.8737873 6.47527269,20.7586229 4.08510638,18.6666667 L0.731914894,23.5963636 C3.87648847,26.4792866 8.03759257,28.0044684 12.306383,27.8387879 Z" id="Path"></path>
                <rect id="Rectangle" x="84.187234" y="0.848484848" width="6.78297872" height="26.8545455"></rect>
                <path d="M109.080851,12.5660606 L103.378723,12.5660606 L103.378723,6.69454545 L109.080851,6.69454545 C111.004255,6.69454545 112.561702,7.72121212 112.561702,9.60484848 C112.561702,11.4884848 111.004255,12.5660606 109.080851,12.5660606 Z M119.540426,27.7030303 L114.204255,17.750303 C116.67234,16.9018182 119.421277,14.3563636 119.421277,9.64727273 C119.421277,4.59878788 116.017021,0.848484848 110.059574,0.848484848 L96.4425532,0.848484848 L96.5617021,27.7030303 L103.429787,27.7030303 L103.429787,18.5987879 L107.114894,18.5987879 L111.804255,27.7030303 L119.540426,27.7030303 Z" id="Shape"></path>
            </g>
            <path d="M66.2505388,1 C51.8370169,1 53.2417606,21.7392626 40.5309583,21.2224765 C36.26757,20.9118847 33.0002915,17.3250394 33.1071006,13.0725044 C33.1071006,7.93853036 37.3638998,4.77851002 41.2886686,4.160061 C44.1444078,3.80637938 47.0351552,4.44695208 49.4702365,5.97304854 L49.4702365,5.87985759 C47.3956491,2.82001054 43.9252487,0.990055501 40.2159552,1 C32.6814207,1 27.1475818,6.38817186 27.0028506,13.9874701 C26.8496059,20.8327689 32.8942607,27.8136181 40.4713631,27.8136181 C44.9823227,27.8336027 49.263934,25.8370095 52.1349928,22.3746555 C55.5404321,18.5284109 57.6518045,13.5808187 59.8483128,10.7512026 L60.1462888,10.3699669 C61.7553589,8.36212558 63.3984833,6.93037374 66.6932459,6.87954231 C70.6520691,6.83718279 73.7510189,9.91248409 73.7254781,14.5550877 C73.7330501,16.4773738 72.9578772,18.3207481 71.5767619,19.6647713 C70.1956465,21.0087945 68.3263666,21.738852 66.3952699,21.6884312 C64.0114624,21.6884312 61.2190022,20.1719603 59.3630377,17.9184338 L55.9575984,23.0015764 C57.1835566,24.365553 60.7166999,28 66.2420252,28 C73.980886,28 80,22.3661836 80,14.885492 C80,7.40480039 74.7130555,1 66.2505388,1 Z" id="Path"></path>
        </g>
    </g>
</svg>